<?xml version="1.0" encoding="utf-8"?>
<!-- Generator: Adobe Illustrator 23.0.3, SVG Export Plug-In . SVG Version: 6.00 Build 0)  -->
<svg version="1.1" id="Layer_1" xmlns="http://www.w3.org/2000/svg" xmlns:xlink="http://www.w3.org/1999/xlink" x="0px" y="0px"
	 viewBox="0 0 2066 2066" style="enable-background:new 0 0 2066 2066;" xml:space="preserve">
<style type="text/css">
	.st0{opacity:0.6;}
	.st1{clip-path:url(#SVGID_2_);fill:url(#SVGID_3_);}
</style>
<g class="st0">
	<g>
		<defs>
			<rect id="SVGID_1_" x="-462.4" y="-171.3" width="2990.8" height="2408.6"/>
		</defs>
		<clipPath id="SVGID_2_">
			<use xlink:href="#SVGID_1_"  style="overflow:visible;"/>
		</clipPath>
		
			<radialGradient id="SVGID_3_" cx="1050.9457" cy="210.3783" r="1832.4565" gradientTransform="matrix(1 0 0 1.1504 0 -33.101)" gradientUnits="userSpaceOnUse">
			<stop  offset="0" style="stop-color:#FFFFFF"/>
			<stop  offset="0.1172" style="stop-color:#FFFFFF;stop-opacity:0.8828"/>
			<stop  offset="1" style="stop-color:#FFFFFF;stop-opacity:0"/>
		</radialGradient>
		<path class="st1" d="M-712.5,667.6L149.6,267l158.2,73.6l-147.6,68.6l-64.7-30.1l-1.5,2.1l63.2,29.4l-790.5,367.3l1.5,2.1l792-368
			l158.2,73.6L170.9,554l-75.3-35l-1.5,2.1l73.8,34.3l-720.4,334.8l1.5,2.1l721.9-335.4l158.2,73.6l-147.6,68.6l-86-40l-1.5,2.1
			l84.5,39.3l-650.3,302.2l1.5,2.1l651.8-302.9l158.2,73.6l-147.6,68.6l-96.6-44.9l-1.5,2.1l95.1,44.2l-580.2,269.6l1.5,2.1
			l581.7-270.3l158.2,73.6l-147.6,68.6L95.6,938.9l-1.5,2.1l105.8,49.2l-510.1,237l1.5,2.1l511.6-237.7l158.2,73.6l-147.5,68.6
			l-117.9-54.8l-1.5,2.1l116.4,54.1l-440,204.4l1.5,2.1l441.5-205.1l158.2,73.6l-147.6,68.6l-128.6-59.8l-1.5,2.1l127.1,59.1
			l-369.9,171.9l1.5,2.1l371.4-172.6l158.2,73.6l-147.5,68.6l-139.2-64.7l-1.5,2.1l137.8,64l-299.8,139.3l1.5,2.1l301.3-140
			l158.2,73.6l-147.6,68.6l-149.9-69.7l-1.5,2.1l148.4,69L12.9,1676.5l1.5,2.1l80.6-37.5l158.2,73.6l-147.6,68.6l-10-4.7l-1.5,2.1
			l8.5,4l-9,4.2l1.5,2.1l10.5-4.9l158.2,73.6l-89.4,41.6l1.5,2.1l90.9-42.3l158.2,73.6l-147.5,68.6l-181.9-84.6l-1.5,2.1l180.4,83.9
			l-19.3,9l1.5,2.1l20.8-9.7l158.2,73.6l-99.8,46.4l1.5,2.1l101.3-47.1l158.2,73.6L449.4,2223L95.6,2058.5l-1.5,2.1l352.2,163.8
			l-27.8,12.9h6l24.8-11.5l24.8,11.5h6l-27.8-12.9l147.6-68.6l158.2,73.6l-17.1,7.9h6l14.1-6.5l14.1,6.5h6l-17.1-7.9l147.5-68.6
			l164.5,76.5h6l-167.5-77.9l147.5-68.6l315,146.5h6l-318-147.8l147.5-68.6l465.4,216.4h6l-468.4-217.8l147.6-68.6l615.9,286.4h6
			l-618.9-287.8l147.5-68.6l766.4,356.3h6l-769.4-357.7l147.5-68.6l916.8,426.3h6l-919.8-427.7l147.5-68.6l938.6,436.4l1.5-2.1
			l-937.1-435.7l147.6-68.6l788,366.4l1.5-2.1l-786.5-365.7l147.6-68.6l637.5,296.4l1.5-2.1l-636-295.7l147.5-68.6l486.9,226.4
			l1.5-2.1l-485.4-225.7l147.5-68.6l336.4,156.4l1.5-2.1l-334.9-155.7l17.1-7.9l-1.5-2.1l-18.6,8.6l-158.2-73.6l97.5-45.3l-1.5-2.1
			l-99,46l-158.2-73.6l147.5-68.6l508.2,236.3l1.5-2.1L2248.2,1240l27.4-12.7l-1.5-2.1l-28.9,13.4L2087,1165l107.9-50.1l-1.5-2.1
			l-109.4,50.8l-158.2-73.6l147.5-68.6l680.1,316.2l1.5-2.1l-678.6-315.5l37.8-17.5l-1.5-2.1l-39.3,18.2l-158.2-73.6l118.2-54.9
			l-1.5-2.1l-119.7,55.6L1754,870.2l147.6-68.6l852,396.1l1.5-2.1l-850.5-395.4l48.1-22.3l-1.5-2.1l-49.6,23l-158.2-73.6l128.5-59.7
			l-1.5-2.1l-130,60.4l-158.2-73.6l147.5-68.6l1023.8,476l1.5-2.1L1732.7,580.4l58.4-27.2l-1.5-2.1l-59.9,27.8l-158.2-73.6
			l138.9-64.5l-1.5-2.1L1568.5,504l-158.2-73.6l147.6-68.6l1195.7,555.9l1.5-2.1L1560.8,360.5l68.8-32l-1.5-2.1l-70.3,32.7
			l-158.2-73.6l147.6-68.6l1206.3,560.9l1.5-2.1L1547.5,214.4l-0.2-0.2l-0.2,0.1l-158.2-73.6l79.1-36.8l-1.5-2.1l-80.6,37.5
			l-158.2-73.6l159.6-74.1l-1.5-2.1l-161,74.8L1066.5-9.2l240-111.5l-1.5-2.1L1063.5-10.6L905.3-84.2l320.4-148.9l-1.5-2.1
			L902.3-85.6L95.6-460.6l-1.5,2.1L899.4-84.2L751.8-15.6L95.6-320.7l-1.5,2.1L748.8-14.2L601.3,54.3L95.6-180.7l-1.5,2.1
			L598.3,55.7l-147.6,68.6L95.6-40.8l-1.5,2.1l353.6,164.4l-147.6,68.6L95.6,99.2l-1.5,2.1l203,94.4l-147.6,68.6l-54-25.1l-1.5,2.1
			l52.5,24.4L-714,665.5L-712.5,667.6z M163.3,410.5L310.8,342L469,415.5l-147.6,68.6L163.3,410.5z M805.1,711.7l158.2,73.6
			l-147.6,68.6l-158.2-73.6L805.1,711.7z M805.1,708.9l-158.2-73.6l147.6-68.6l158.2,73.6L805.1,708.9z M998.3,1221.4l158.2,73.6
			l-147.6,68.6l-158.2-73.6L998.3,1221.4z M998.3,1218.6L840,1145l147.6-68.6l158.2,73.6L998.3,1218.6z M1167.1,1439.8l-147.5,68.6
			l-158.2-73.6l147.5-68.6L1167.1,1439.8z M1011.9,1364.9l147.6-68.6l158.2,73.6l-147.6,68.6L1011.9,1364.9z M1162.4,1294.9
			l147.5-68.6l158.2,73.6l-147.6,68.6L1162.4,1294.9z M1159.5,1293.5l-158.2-73.6l147.6-68.6L1307,1225L1159.5,1293.5z
			 M990.6,1075.1l147.6-68.6l158.2,73.6l-147.6,68.6L990.6,1075.1z M987.6,1073.7l-158.2-73.6l147.6-68.6l158.2,73.6L987.6,1073.7z
			 M976.9,928.8l-158.2-73.6l147.6-68.6l158.2,73.6L976.9,928.8z M815.7,856.6l158.2,73.6l-147.6,68.6l-158.2-73.6L815.7,856.6z
			 M826.4,1001.5l158.2,73.6L837,1143.6l-158.2-73.6L826.4,1001.5z M837.1,1146.4l158.2,73.6l-147.6,68.6L689.5,1215L837.1,1146.4z
			 M1005.9,1364.9l-147.5,68.6l-158.2-73.6l147.5-68.6L1005.9,1364.9z M1016.6,1509.8L869,1578.4l-158.2-73.6l147.6-68.6
			L1016.6,1509.8z M1027.2,1654.7l-147.6,68.6l-158.2-73.6l147.5-68.6L1027.2,1654.7z M872,1579.8l147.6-68.6l158.2,73.6
			l-147.6,68.6L872,1579.8z M1022.6,1509.8l147.5-68.6l158.2,73.6l-147.5,68.6L1022.6,1509.8z M1173.1,1439.8l147.6-68.6l158.2,73.6
			l-147.5,68.6L1173.1,1439.8z M1323.6,1369.9l147.5-68.6l158.2,73.6l-147.5,68.6L1323.6,1369.9z M1471.2,1298.5L1313,1225
			l147.5-68.6l158.2,73.6L1471.2,1298.5z M1310,1223.6l-158.2-73.6l147.6-68.6l158.2,73.6L1310,1223.6z M1141.1,1005.1l147.6-68.6
			l158.2,73.6l-147.6,68.6L1141.1,1005.1z M1138.1,1003.7l-158.2-73.6l147.5-68.6l158.2,73.6L1138.1,1003.7z M969.3,785.3
			l147.6-68.6l158.2,73.6l-147.5,68.6L969.3,785.3z M966.3,783.9l-158.2-73.6l147.6-68.6l158.2,73.6L966.3,783.9z M797.4,565.4
			L945,496.8l158.2,73.6L955.6,639L797.4,565.4z M786.8,420.5l147.6-68.6l158.2,73.6L945,494.1L786.8,420.5z M942,495.5L794.4,564
			l-158.2-73.6l147.6-68.6L942,495.5z M791.4,565.4L643.9,634l-158.2-73.6l147.6-68.6L791.4,565.4z M643.9,636.8l158.2,73.6
			l-147.6,68.6l-158.2-73.6L643.9,636.8z M654.5,781.7l158.2,73.6l-147.6,68.6L507,850.2L654.5,781.7z M665.2,926.6l158.2,73.6
			l-147.6,68.6l-158.2-73.6L665.2,926.6z M675.9,1071.5l158.2,73.6l-147.6,68.6l-158.2-73.6L675.9,1071.5z M844.7,1289.9
			l-147.5,68.6L539,1285l147.5-68.6L844.7,1289.9z M855.4,1434.9l-147.6,68.6l-158.2-73.6l147.6-68.6L855.4,1434.9z M866,1579.8
			l-147.5,68.6l-158.2-73.6l147.5-68.6L866,1579.8z M876.7,1724.7l-147.6,68.6l-158.2-73.6l147.6-68.6L876.7,1724.7z M887.3,1869.6
			l-147.5,68.6l-158.2-73.6l147.5-68.6L887.3,1869.6z M732.1,1794.6l147.6-68.6l158.2,73.6l-147.5,68.6L732.1,1794.6z M882.7,1724.7
			l147.5-68.6l158.2,73.6l-147.5,68.6L882.7,1724.7z M1033.2,1654.7l147.6-68.6l158.2,73.6l-147.6,68.6L1033.2,1654.7z
			 M1183.8,1584.8l147.5-68.6l158.2,73.6l-147.5,68.6L1183.8,1584.8z M1334.3,1514.8l147.6-68.6l158.2,73.6l-147.6,68.6
			L1334.3,1514.8z M1484.8,1444.8l147.6-68.6l158.2,73.6l-147.5,68.6L1484.8,1444.8z M1635.4,1374.9l147.5-68.6l158.2,73.6
			l-147.6,68.6L1635.4,1374.9z M1632.4,1373.5l-158.2-73.6l147.6-68.6l158.2,73.6L1632.4,1373.5z M1621.7,1228.6l-158.2-73.6
			l147.5-68.6l158.2,73.6L1621.7,1228.6z M1460.5,1153.6l-158.2-73.6l147.5-68.6l158.2,73.6L1460.5,1153.6z M1291.7,935.2
			l147.6-68.6l158.2,73.6l-147.6,68.6L1291.7,935.2z M1288.7,933.8l-158.2-73.6l147.5-68.6l158.2,73.6L1288.7,933.8z M1119.8,715.3
			l147.6-68.6l158.2,73.6L1278,788.9L1119.8,715.3z M1116.8,713.9l-158.2-73.6l147.6-68.6l158.2,73.6L1116.8,713.9z M948,495.5
			l147.6-68.6l158.2,73.6L1106.2,569L948,495.5z M937.3,350.5l147.6-68.6l158.2,73.6l-147.5,68.6L937.3,350.5z M934.3,349.2
			l-158.2-73.6L923.7,207l158.2,73.6L934.3,349.2z M931.3,350.5l-147.6,68.6l-158.2-73.6L773.1,277L931.3,350.5z M780.8,420.5
			l-147.6,68.6L475,415.5l147.6-68.6L780.8,420.5z M630.2,490.5L482.7,559l-158.2-73.6L472,416.9L630.2,490.5z M482.7,561.8
			l158.2,73.6l-147.6,68.6l-158.2-73.6L482.7,561.8z M493.3,706.7l158.2,73.6L504,848.8l-158.2-73.6L493.3,706.7z M504,851.6
			l158.2,73.6l-147.6,68.6l-158.2-73.6L504,851.6z M514.6,996.5l158.2,73.6l-147.6,68.6l-158.2-73.6L514.6,996.5z M683.5,1215
			L536,1283.6L377.8,1210l147.5-68.6L683.5,1215z M694.2,1359.9l-147.6,68.6l-158.2-73.6l147.6-68.6L694.2,1359.9z M704.8,1504.8
			l-147.5,68.6l-158.2-73.6l147.5-68.6L704.8,1504.8z M715.5,1649.7l-147.6,68.6l-158.2-73.6l147.6-68.6L715.5,1649.7z
			 M564.9,1719.7l-147.5,68.6l-158.2-73.6l147.5-68.6L564.9,1719.7z M567.9,1721.1l158.2,73.6l-147.5,68.6l-158.2-73.6L567.9,1721.1
			z M736.8,1939.5l-147.6,68.6L431,1934.5l147.6-68.6L736.8,1939.5z M739.8,1940.9l158.2,73.6L750.4,2083l-158.2-73.6L739.8,1940.9z
			 M742.8,1939.5l147.5-68.6l158.2,73.6L901,2013.1L742.8,1939.5z M893.3,1869.6l147.6-68.6l158.2,73.6l-147.6,68.6L893.3,1869.6z
			 M1043.9,1799.6l147.5-68.6l158.2,73.6l-147.5,68.6L1043.9,1799.6z M1194.4,1729.7l147.6-68.6l158.2,73.6l-147.5,68.6
			L1194.4,1729.7z M1345,1659.7l147.6-68.6l158.2,73.6l-147.6,68.6L1345,1659.7z M1495.5,1589.7l147.6-68.6l158.2,73.6l-147.6,68.6
			L1495.5,1589.7z M1646.1,1519.8l147.5-68.6l158.2,73.6l-147.5,68.6L1646.1,1519.8z M1796.6,1449.8l147.6-68.6l158.2,73.6
			l-147.5,68.6L1796.6,1449.8z M1944.2,1378.5l-158.2-73.6l147.5-68.6l158.2,73.6L1944.2,1378.5z M1782.9,1303.5l-158.2-73.6
			l147.5-68.6l158.2,73.6L1782.9,1303.5z M1772.3,1158.6l-158.2-73.6l147.6-68.6l158.2,73.6L1772.3,1158.6z M1611.1,1083.7
			l-158.2-73.6l147.5-68.6l158.2,73.6L1611.1,1083.7z M1442.2,865.2l147.6-68.6l158.2,73.6l-147.5,68.6L1442.2,865.2z M1439.2,863.8
			L1281,790.3l147.6-68.6l158.2,73.6L1439.2,863.8z M1270.4,645.4l147.6-68.6l158.2,73.6l-147.6,68.6L1270.4,645.4z M1267.4,644
			l-158.2-73.6l147.6-68.6l158.2,73.6L1267.4,644z M1098.5,425.5l147.5-68.6l158.2,73.6l-147.6,68.6L1098.5,425.5z M1087.8,280.6
			l147.6-68.6l158.2,73.6l-147.6,68.6L1087.8,280.6z M1084.9,279.2l-158.2-73.6l147.6-68.6l158.2,73.6L1084.9,279.2z M923.7,204.2
			l-158.2-73.6L913,62.1l158.2,73.6L923.7,204.2z M920.7,205.6l-147.6,68.6l-158.2-73.6l147.6-68.6L920.7,205.6z M770.1,275.6
			l-147.6,68.6l-158.2-73.6L611.9,202L770.1,275.6z M619.6,345.6L472,414.1l-158.2-73.6L461.4,272L619.6,345.6z M173.9,555.4
			l147.6-68.6l158.2,73.6L332.1,629L173.9,555.4z M184.6,700.3l147.6-68.6l158.2,73.6l-147.6,68.6L184.6,700.3z M195.2,845.2
			l147.6-68.6L501,850.2l-147.6,68.6L195.2,845.2z M205.9,990.1l147.6-68.6l158.2,73.6l-147.6,68.6L205.9,990.1z M216.5,1135.1
			l147.5-68.6l158.2,73.6l-147.5,68.6L216.5,1135.1z M227.2,1280l147.6-68.6L533,1285l-147.6,68.6L227.2,1280z M237.9,1424.9
			l147.5-68.6l158.2,73.6l-147.5,68.6L237.9,1424.9z M396.1,1501.2l158.2,73.6l-147.6,68.6l-158.2-73.6L396.1,1501.2z M98,1639.7
			l147.5-68.6l158.2,73.6l-147.5,68.6L98,1639.7z M108.6,1784.6l147.5-68.6l158.2,73.6l-147.6,68.6L108.6,1784.6z M269.8,1859.6
			l147.6-68.6l158.2,73.6L428,1933.1L269.8,1859.6z M280.5,2004.5l147.5-68.6l158.2,73.6l-147.5,68.6L280.5,2004.5z M441.7,2079.4
			l147.5-68.6l158.2,73.6L599.9,2153L441.7,2079.4z M761.1,2228l-158.2-73.6l147.5-68.6l158.2,73.6L761.1,2228z M911.6,2158
			l-158.2-73.6l147.6-68.6l158.2,73.6L911.6,2158z M1062.2,2088L904,2014.5l147.5-68.6l158.2,73.6L1062.2,2088z M1212.7,2018.1
			l-158.2-73.6l147.6-68.6l158.2,73.6L1212.7,2018.1z M1363.3,1948.1l-158.2-73.6l147.6-68.6l158.2,73.6L1363.3,1948.1z
			 M1513.8,1878.2l-158.2-73.6l147.6-68.6l158.2,73.6L1513.8,1878.2z M1664.4,1808.2l-158.2-73.6l147.5-68.6l158.2,73.6
			L1664.4,1808.2z M1814.9,1738.3l-158.2-73.6l147.6-68.6l158.2,73.6L1814.9,1738.3z M1965.5,1668.3l-158.2-73.6l147.5-68.6
			l158.2,73.6L1965.5,1668.3z M2116,1598.3l-158.2-73.6l147.6-68.6l158.2,73.6L2116,1598.3z M2255.9,1386.3l158.2,73.6l-147.6,68.6
			l-158.2-73.6L2255.9,1386.3z M2252.9,1384.9l-147.5,68.6l-158.2-73.6l147.5-68.6L2252.9,1384.9z M2084,1166.4l158.2,73.6
			l-147.6,68.6l-158.2-73.6L2084,1166.4z M2081,1165l-147.6,68.6l-158.2-73.6l147.6-68.6L2081,1165z M2070.4,1020.1l-147.5,68.6
			l-158.2-73.6l147.5-68.6L2070.4,1020.1z M1909.2,945.2l-147.5,68.6l-158.2-73.6l147.6-68.6L1909.2,945.2z M1898.5,800.2
			L1751,868.8l-158.2-73.6l147.5-68.6L1898.5,800.2z M1737.3,725.3l-147.6,68.6l-158.2-73.6l147.6-68.6L1737.3,725.3z M1726.7,580.4
			L1579.1,649l-158.2-73.6l147.5-68.6L1726.7,580.4z M1565.5,505.4L1417.9,574l-158.2-73.6l147.5-68.6L1565.5,505.4z M1554.8,360.5
			l-147.5,68.6L1249,355.5l147.6-68.6L1554.8,360.5z M1544.2,215.6l-147.6,68.6l-158.2-73.6l147.6-68.6L1544.2,215.6z M1383,140.7
			l-147.6,68.6l-158.2-73.6l147.6-68.6L1383,140.7z M1221.8,65.7l-147.6,68.6L916,60.7l147.6-68.6L1221.8,65.7z M902.3-82.8
			l158.2,73.6L913,59.3L754.8-14.2L902.3-82.8z M751.8-12.8L910,60.7l-147.6,68.6L604.2,55.7L751.8-12.8z M601.3,57.1l158.2,73.6
			l-147.6,68.6l-158.2-73.6L601.3,57.1z M450.7,127.1l158.2,73.6l-147.6,68.6l-158.2-73.6L450.7,127.1z M300.2,197l158.2,73.6
			l-147.6,68.6l-158.2-73.6L300.2,197z"/>
	</g>
</g>
</svg>
